<?xml version="1.0" encoding="UTF-8"?>
<svg xmlns="http://www.w3.org/2000/svg" viewBox="0 0 225 190">
  <path d="M94.71,70.98c.19.11.38.22.56.34,7.8,4.96,8.51,16.09,1.69,22.33-2.19,2-4.67,4.38-7.17,7.02-10.68,11.28-15.87,20.95-15.87,29.57,0,19.72,16.06,35.76,35.8,35.76s35.8-16.04,35.8-35.76c0-8.62-5.19-18.3-15.87-29.57-2.49-2.63-4.98-5.02-7.16-7.02-6.83-6.24-6.12-17.37,1.69-22.33.18-.12.37-.23.56-.34M124.72,70.98c.19-.11.38-.21.57-.31,8.2-4.27,18.21.68,20.21,9.7.64,2.89,1.47,6.24,2.5,9.71,4.44,14.88,10.23,24.21,17.71,28.52,5.62,3.25,11.77,4.78,17.84,4.78,12.38,0,24.44-6.41,31.07-17.87,4.78-8.27,6.05-17.91,3.57-27.14-2.47-9.23-8.4-16.94-16.68-21.71-7.48-4.31-18.47-4.66-33.58-1.06-4.41,1.05-8.48,2.28-11.68,3.34-2.42.8-5.07.77-7.41-.21-.06-.02-.11-.05-.17-.07-5.03-2.19-7.24-8.04-5.2-13.12,1.37-3.42,2.05-6.67,2.05-9.79,0-19.71-16.06-35.75-35.8-35.75s-35.8,16.04-35.8,35.76c0,3.13.68,6.4,2.07,9.83,1.97,4.89,0,10.59-4.76,12.86-.06.03-.12.05-.17.08-2.47,1.14-5.29,1.26-7.88.41-3.2-1.06-7.27-2.29-11.67-3.33-15.12-3.6-26.11-3.25-33.58,1.06-8.28,4.77-14.2,12.49-16.68,21.71S.03,97.24,4.81,105.51c4.78,8.27,12.5,14.19,21.74,16.66,3.08.83,6.22,1.23,9.32,1.23,6.2,0,12.33-1.63,17.84-4.8,7.48-4.31,13.27-13.64,17.71-28.52,1.04-3.47,1.87-6.82,2.5-9.71,2-9.02,12-13.98,20.21-9.7.19.1.38.21.57.31M109.72,17.88c9.87,0,17.9,8.02,17.9,17.88,0,5.21-8.5,15.64-17.9,24.08-9.41-8.45-17.9-18.87-17.9-24.08,0-9.86,8.03-17.88,17.9-17.88ZM44.77,103.11c-8.55,4.93-19.52,1.99-24.45-6.54-2.39-4.13-3.03-8.95-1.79-13.57,1.24-4.61,4.2-8.47,8.34-10.86,1.37-.79,3.55-1.14,6.26-1.14,6.21,0,15.2,1.86,23.57,4.59-2.62,12.36-7.41,24.92-11.93,27.52ZM127.62,130.24c0,9.86-8.03,17.88-17.9,17.88s-17.9-8.02-17.9-17.88c0-5.21,8.5-15.64,17.9-24.08,9.41,8.45,17.9,18.87,17.9,24.08ZM199.12,96.57c-4.94,8.54-15.91,11.47-24.45,6.54-4.52-2.61-9.31-15.17-11.93-27.52,12.02-3.91,25.31-6.05,29.83-3.44,4.14,2.39,7.1,6.24,8.34,10.86,1.24,4.61.6,9.43-1.79,13.57Z"/>
</svg>
