<svg width="412" height="367" viewBox="0 0 412 367" fill="none" xmlns="http://www.w3.org/2000/svg">
<path d="M40 11.1702H55.1368V53.29H40V11.1702Z" fill="#EBC8CA"/>
<path d="M40 0.644775C56.3597 0.821865 69.6155 14.184 69.6155 30.5848C69.6155 37.8052 65.2733 45.9087 56.3386 55.3524C50.4059 61.6258 44.5255 66.234 44.2784 66.4287L40 69.7713V50.4532C47.7354 43.4333 54.6432 34.8881 54.6432 30.5848C54.6432 22.4376 48.1058 15.792 40 15.6164V0.644775Z" fill="#D14C51"/>
<path d="M87.6152 92.5254H72.4784V134.645H87.6152V92.5254Z" fill="#EBC8CA"/>
<path d="M87.6152 82C71.2555 82.1771 57.9998 95.5392 57.9998 111.94C57.9998 119.16 62.3419 127.264 71.2766 136.708C77.2094 142.981 83.0898 147.589 83.3368 147.784L87.6152 151.127V131.808C79.8798 124.789 72.972 116.243 72.972 111.94C72.972 103.793 79.5094 97.1472 87.6152 96.9716V82Z" fill="#D14C51"/>
<path d="M87.6152 235.525H72.4784V277.645H87.6152V235.525Z" fill="#EBC8CA"/>
<path d="M87.6152 225C71.2555 225.177 57.9998 238.539 57.9998 254.94C57.9998 262.16 62.3419 270.264 71.2766 279.708C77.2094 285.981 83.0898 290.589 83.3368 290.784L87.6152 294.127V274.808C79.8798 267.789 72.972 259.243 72.972 254.94C72.972 246.793 79.5094 240.147 87.6152 239.972V225Z" fill="#D14C51"/>
<path d="M29.6152 23.5254H14.4784V65.6452H29.6152V23.5254Z" fill="#EBC8CA"/>
<path d="M29.6152 13C13.2555 13.1771 -0.000244295 26.5392 -0.000245035 42.94C-0.000245035 50.1604 4.34192 58.2639 13.2766 67.7077C19.2094 73.981 25.0898 78.5893 25.3368 78.7839L29.6152 82.1266V62.8084C21.8798 55.7885 14.972 47.2433 14.972 42.94C14.972 34.7928 21.5094 28.1472 29.6152 27.9716V13Z" fill="#D14C51"/>
<path d="M29.6152 163.525H14.4784V205.645H29.6152V163.525Z" fill="#EBC8CA"/>
<path d="M29.6152 153C13.2555 153.177 -0.000244295 166.539 -0.000245035 182.94C-0.000245035 190.16 4.34192 198.264 13.2766 207.708C19.2094 213.981 25.0898 218.589 25.3368 218.784L29.6152 222.127V202.808C21.8798 195.789 14.972 187.243 14.972 182.94C14.972 174.793 21.5094 168.147 29.6152 167.972V153Z" fill="#D14C51"/>
<path d="M29.6152 307.525H14.4784V349.645H29.6152V307.525Z" fill="#EBC8CA"/>
<path d="M29.6152 297C13.2555 297.177 -0.000244295 310.539 -0.000245035 326.94C-0.000245035 334.16 4.34192 342.264 13.2766 351.708C19.2094 357.981 25.0898 362.589 25.3368 362.784L29.6152 366.127V346.808C21.8798 339.789 14.972 331.243 14.972 326.94C14.972 318.793 21.5094 312.147 29.6152 311.972V297Z" fill="#D14C51"/>
<path d="M40 150.525H55.1368V192.645H40V150.525Z" fill="#EBC8CA"/>
<path d="M40 140C56.3597 140.177 69.6155 153.539 69.6155 169.94C69.6155 177.16 65.2733 185.264 56.3386 194.708C50.4059 200.981 44.5255 205.589 44.2784 205.784L40 209.127V189.808C47.7354 182.789 54.6432 174.243 54.6432 169.94C54.6432 161.793 48.1058 155.147 40 154.972V140Z" fill="#D14C51"/>
<path d="M40 293.525H55.1368V335.645H40V293.525Z" fill="#EBC8CA"/>
<path d="M40 283C56.3597 283.177 69.6155 296.539 69.6155 312.94C69.6155 320.16 65.2733 328.264 56.3386 337.708C50.4059 343.981 44.5255 348.589 44.2784 348.784L40 352.127V332.808C47.7354 325.789 54.6432 317.243 54.6432 312.94C54.6432 304.793 48.1058 298.147 40 297.972V283Z" fill="#D14C51"/>
<path d="M154 11.5254H169.137V53.6452H154V11.5254Z" fill="#FFF7D2"/>
<path d="M154 1C170.36 1.17709 183.615 14.5392 183.615 30.94C183.615 38.1604 179.273 46.2639 170.339 55.7077C164.406 61.981 158.525 66.5893 158.278 66.7839L154 70.1266V50.8084C161.735 43.7885 168.643 35.2433 168.643 30.94C168.643 22.7928 162.106 16.1472 154 15.9716V1Z" fill="#FFE168"/>
<path d="M97 81.5254H112.137V123.645H97V81.5254Z" fill="#FFF7D2"/>
<path d="M97 71C113.36 71.1771 126.615 84.5392 126.615 100.94C126.615 108.16 122.273 116.264 113.339 125.708C107.406 131.981 101.525 136.589 101.278 136.784L97 140.127V120.808C104.735 113.789 111.643 105.243 111.643 100.94C111.643 92.7928 105.106 86.1472 97 85.9716V71Z" fill="#FFE168"/>
<path d="M98 224.525H113.137V266.645H98V224.525Z" fill="#FFF7D2"/>
<path d="M98 214C114.36 214.177 127.615 227.539 127.615 243.94C127.615 251.16 123.273 259.264 114.339 268.708C108.406 274.981 102.525 279.589 102.278 279.784L98 283.127V263.808C105.735 256.789 112.643 248.243 112.643 243.94C112.643 235.793 106.106 229.147 98 228.972V214Z" fill="#FFE168"/>
<path d="M144.615 23.5254H129.478V65.6452H144.615V23.5254Z" fill="#FFF7D2"/>
<path d="M144.615 13C128.256 13.1771 115 26.5392 115 42.94C115 50.1604 119.342 58.2639 128.277 67.7077C134.209 73.981 140.09 78.5893 140.337 78.7839L144.615 82.1266V62.8084C136.88 55.7885 129.972 47.2433 129.972 42.94C129.972 34.7928 136.509 28.1472 144.615 27.9716V13Z" fill="#FFE168"/>
<path d="M200.615 92.5254H185.478V134.645H200.615V92.5254Z" fill="#E8E8E8"/>
<path d="M200.615 82C184.256 82.1771 171 95.5392 171 111.94C171 119.16 175.342 127.264 184.277 136.708C190.209 142.981 196.09 147.589 196.337 147.784L200.615 151.127V131.808C192.88 124.789 185.972 116.243 185.972 111.94C185.972 103.793 192.509 97.1472 200.615 96.9716V82Z" fill="#7D7D7D"/>
<path d="M200.615 235.525H185.478V277.645H200.615V235.525Z" fill="#E8E8E8"/>
<path d="M200.615 225C184.256 225.177 171 238.539 171 254.94C171 262.16 175.342 270.264 184.277 279.708C190.209 285.981 196.09 290.589 196.337 290.784L200.615 294.127V274.808C192.88 267.789 185.972 259.243 185.972 254.94C185.972 246.793 192.509 240.147 200.615 239.972V225Z" fill="#7D7D7D"/>
<path d="M211 81.5254H226.137V123.645H211V81.5254Z" fill="#E8E8E8"/>
<path d="M211 71C227.36 71.1771 240.615 84.5392 240.615 100.94C240.615 108.16 236.273 116.264 227.339 125.708C221.406 131.981 215.525 136.589 215.278 136.784L211 140.127V120.808C218.735 113.789 225.643 105.243 225.643 100.94C225.643 92.7928 219.106 86.1472 211 85.9716V71Z" fill="#7D7D7D"/>
<path d="M211 81.5254H226.137V123.645H211V81.5254Z" fill="#E8E8E8"/>
<path d="M211 71C227.36 71.1771 240.615 84.5392 240.615 100.94C240.615 108.16 236.273 116.264 227.339 125.708C221.406 131.981 215.525 136.589 215.278 136.784L211 140.127V120.808C218.735 113.789 225.643 105.243 225.643 100.94C225.643 92.7928 219.106 86.1472 211 85.9716V71Z" fill="#7D7D7D"/>
<path d="M211 221.525H226.137V263.645H211V221.525Z" fill="#E8E8E8"/>
<path d="M211 211C227.36 211.177 240.615 224.539 240.615 240.94C240.615 248.16 236.273 256.264 227.339 265.708C221.406 271.981 215.525 276.589 215.278 276.784L211 280.127V260.808C218.735 253.789 225.643 245.243 225.643 240.94C225.643 232.793 219.106 226.147 211 225.972V211Z" fill="#7D7D7D"/>
<path d="M211 221.525H226.137V263.645H211V221.525Z" fill="#E8E8E8"/>
<path d="M211 211C227.36 211.177 240.615 224.539 240.615 240.94C240.615 248.16 236.273 256.264 227.339 265.708C221.406 271.981 215.525 276.589 215.278 276.784L211 280.127V260.808C218.735 253.789 225.643 245.243 225.643 240.94C225.643 232.793 219.106 226.147 211 225.972V211Z" fill="#7D7D7D"/>
<path d="M144.615 163.525H129.478V205.645H144.615V163.525Z" fill="#FFF7D2"/>
<path d="M144.615 153C128.256 153.177 115 166.539 115 182.94C115 190.16 119.342 198.264 128.277 207.708C134.209 213.981 140.09 218.589 140.337 218.784L144.615 222.127V202.808C136.88 195.789 129.972 187.243 129.972 182.94C129.972 174.793 136.509 168.147 144.615 167.972V153Z" fill="#FFE168"/>
<path d="M144.615 307.525H129.478V349.645H144.615V307.525Z" fill="#FFF7D2"/>
<path d="M144.615 297C128.256 297.177 115 310.539 115 326.94C115 334.16 119.342 342.264 128.277 351.708C134.209 357.981 140.09 362.589 140.337 362.784L144.615 366.127V346.808C136.88 339.789 129.972 331.243 129.972 326.94C129.972 318.793 136.509 312.147 144.615 311.972V297Z" fill="#FFE168"/>
<path d="M154 150.525H169.137V192.645H154V150.525Z" fill="#FFF7D2"/>
<path d="M154 140C170.36 140.177 183.615 153.539 183.615 169.94C183.615 177.16 179.273 185.264 170.339 194.708C164.406 200.981 158.525 205.589 158.278 205.784L154 209.127V189.808C161.735 182.789 168.643 174.243 168.643 169.94C168.643 161.793 162.106 155.147 154 154.972V140Z" fill="#FFE168"/>
<path d="M154 293.525H169.137V335.645H154V293.525Z" fill="#FFF7D2"/>
<path d="M154 283C170.36 283.177 183.615 296.539 183.615 312.94C183.615 320.16 179.273 328.264 170.339 337.708C164.406 343.981 158.525 348.589 158.278 348.784L154 352.127V332.808C161.735 325.789 168.643 317.243 168.643 312.94C168.643 304.793 162.106 298.147 154 297.972V283Z" fill="#FFE168"/>
<path d="M268 10.5254H283.137V52.6452H268V10.5254Z" fill="#D5D2FF"/>
<path d="M268 0C284.36 0.177089 297.615 13.5392 297.615 29.94C297.615 37.1604 293.273 45.2639 284.339 54.7077C278.406 60.981 272.525 65.5893 272.278 65.7839L268 69.1266V49.8084C275.735 42.7885 282.643 34.2433 282.643 29.94C282.643 21.7928 276.106 15.1472 268 14.9716V0Z" fill="#2510CA"/>
<path d="M256.615 23.5254H241.478V65.6452H256.615V23.5254Z" fill="#D5D2FF"/>
<path d="M256.615 13C240.256 13.1771 227 26.5392 227 42.94C227 50.1604 231.342 58.2639 240.277 67.7077C246.209 73.981 252.09 78.5893 252.337 78.7839L256.615 82.1266V62.8084C248.88 55.7885 241.972 47.2433 241.972 42.94C241.972 34.7928 248.509 28.1472 256.615 27.9716V13Z" fill="#2510CA"/>
<path d="M256.615 163.525H241.478V205.645H256.615V163.525Z" fill="#D5D2FF"/>
<path d="M256.615 153C240.256 153.177 227 166.539 227 182.94C227 190.16 231.342 198.264 240.277 207.708C246.209 213.981 252.09 218.589 252.337 218.784L256.615 222.127V202.808C248.88 195.789 241.972 187.243 241.972 182.94C241.972 174.793 248.509 168.147 256.615 167.972V153Z" fill="#2510CA"/>
<path d="M256.615 304.525H241.478V346.645H256.615V304.525Z" fill="#D5D2FF"/>
<path d="M256.615 294C240.256 294.177 227 307.539 227 323.94C227 331.16 231.342 339.264 240.277 348.708C246.209 354.981 252.09 359.589 252.337 359.784L256.615 363.127V343.808C248.88 336.789 241.972 328.243 241.972 323.94C241.972 315.793 248.509 309.147 256.615 308.972V294Z" fill="#2510CA"/>
<path d="M312.615 235.525H297.478V277.645H312.615V235.525Z" fill="#D5D2FF"/>
<path d="M312.615 225C296.256 225.177 283 238.539 283 254.94C283 262.16 287.342 270.264 296.277 279.708C302.209 285.981 308.09 290.589 308.337 290.784L312.615 294.127V274.808C304.88 267.789 297.972 259.243 297.972 254.94C297.972 246.793 304.509 240.147 312.615 239.972V225Z" fill="#2510CA"/>
<path d="M314.615 92.5254H299.478V134.645H314.615V92.5254Z" fill="#D5D2FF"/>
<path d="M314.615 82C298.256 82.1771 285 95.5392 285 111.94C285 119.16 289.342 127.264 298.277 136.708C304.209 142.981 310.09 147.589 310.337 147.784L314.615 151.127V131.808C306.88 124.789 299.972 116.243 299.972 111.94C299.972 103.793 306.509 97.1472 314.615 96.9716V82Z" fill="#2510CA"/>
<path d="M268 150.525H283.137V192.645H268V150.525Z" fill="#D5D2FF"/>
<path d="M268 140C284.36 140.177 297.615 153.539 297.615 169.94C297.615 177.16 293.273 185.264 284.339 194.708C278.406 200.981 272.525 205.589 272.278 205.784L268 209.127V189.808C275.735 182.789 282.643 174.243 282.643 169.94C282.643 161.793 276.106 155.147 268 154.972V140Z" fill="#2510CA"/>
<path d="M268 290.525H283.137V332.645H268V290.525Z" fill="#D5D2FF"/>
<path d="M268 280C284.36 280.177 297.615 293.539 297.615 309.94C297.615 317.16 293.273 325.264 284.339 334.708C278.406 340.981 272.525 345.589 272.278 345.784L268 349.127V329.808C275.735 322.789 282.643 314.243 282.643 309.94C282.643 301.793 276.106 295.147 268 294.972V280Z" fill="#2510CA"/>
<path d="M382 10.5254H397.137V52.6452H382V10.5254Z" fill="#D9FFD2"/>
<path d="M382 0C398.36 0.177089 411.615 13.5392 411.615 29.94C411.615 37.1604 407.273 45.2639 398.339 54.7077C392.406 60.981 386.525 65.5893 386.278 65.7839L382 69.1266V49.8084C389.735 42.7885 396.643 34.2433 396.643 29.94C396.643 21.7928 390.106 15.1472 382 14.9716V0Z" fill="#00763E"/>
<path d="M325 81.5254H340.137V123.645H325V81.5254Z" fill="#D9FFD2"/>
<path d="M325 71C341.36 71.1771 354.615 84.5392 354.615 100.94C354.615 108.16 350.273 116.264 341.339 125.708C335.406 131.981 329.525 136.589 329.278 136.784L325 140.127V120.808C332.735 113.789 339.643 105.243 339.643 100.94C339.643 92.7928 333.106 86.1472 325 85.9716V71Z" fill="#00763E"/>
<path d="M325 224.525H340.137V266.645H325V224.525Z" fill="#D9FFD2"/>
<path d="M325 214C341.36 214.177 354.615 227.539 354.615 243.94C354.615 251.16 350.273 259.264 341.339 268.708C335.406 274.981 329.525 279.589 329.278 279.784L325 283.127V263.808C332.735 256.789 339.643 248.243 339.643 243.94C339.643 235.793 333.106 229.147 325 228.972V214Z" fill="#00763E"/>
<path d="M371.615 23.5254H356.478V65.6452H371.615V23.5254Z" fill="#D9FFD2"/>
<path d="M371.615 13C355.256 13.1771 342 26.5392 342 42.94C342 50.1604 346.342 58.2639 355.277 67.7077C361.209 73.981 367.09 78.5893 367.337 78.7839L371.615 82.1266V62.8084C363.88 55.7885 356.972 47.2433 356.972 42.94C356.972 34.7928 363.509 28.1472 371.615 27.9716V13Z" fill="#00763E"/>
<path d="M371.615 161.525H356.478V203.645H371.615V161.525Z" fill="#D9FFD2"/>
<path d="M371.615 151C355.256 151.177 342 164.539 342 180.94C342 188.16 346.342 196.264 355.277 205.708C361.209 211.981 367.09 216.589 367.337 216.784L371.615 220.127V200.808C363.88 193.789 356.972 185.243 356.972 180.94C356.972 172.793 363.509 166.147 371.615 165.972V151Z" fill="#00763E"/>
<path d="M371.615 307.525H356.478V349.645H371.615V307.525Z" fill="#D9FFD2"/>
<path d="M371.615 297C355.256 297.177 342 310.539 342 326.94C342 334.16 346.342 342.264 355.277 351.708C361.209 357.981 367.09 362.589 367.337 362.784L371.615 366.127V346.808C363.88 339.789 356.972 331.243 356.972 326.94C356.972 318.793 363.509 312.147 371.615 311.972V297Z" fill="#00763E"/>
<path d="M382 150.525H397.137V192.645H382V150.525Z" fill="#D9FFD2"/>
<path d="M382 140C398.36 140.177 411.615 153.539 411.615 169.94C411.615 177.16 407.273 185.264 398.339 194.708C392.406 200.981 386.525 205.589 386.278 205.784L382 209.127V189.808C389.735 182.789 396.643 174.243 396.643 169.94C396.643 161.793 390.106 155.147 382 154.972V140Z" fill="#00763E"/>
<path d="M382 293.525H397.137V335.645H382V293.525Z" fill="#D9FFD2"/>
<path d="M382 283C398.36 283.177 411.615 296.539 411.615 312.94C411.615 320.16 407.273 328.264 398.339 337.708C392.406 343.981 386.525 348.589 386.278 348.784L382 352.127V332.808C389.735 325.789 396.643 317.243 396.643 312.94C396.643 304.793 390.106 298.147 382 297.972V283Z" fill="#00763E"/>
</svg>
