<?xml version="1.0" encoding="UTF-8"?>
<svg id="Layer_1" xmlns="http://www.w3.org/2000/svg" version="1.1" viewBox="0 0 608 190">
  <!-- Generator: Adobe Illustrator 30.2.1, SVG Export Plug-In . SVG Version: 2.1.1 Build 1)  -->
  <path d="M373.61,107.4l-34.47,82.6h-12.03l11.42-27.33-22.13-55.27h12.95l15.81,42.83,16.42-42.83h12.03Z"/>
  <path d="M433.88,134.12c0,2.11-.14,4.01-.41,5.71h-42.93c.34,4.49,2.01,8.09,5,10.81,2.99,2.72,6.66,4.08,11.01,4.08,6.26,0,10.67-2.62,13.26-7.85h12.54c-1.7,5.17-4.79,9.42-9.28,12.75-4.42,3.26-9.92,4.9-16.52,4.9-5.37,0-10.2-1.19-14.48-3.57-4.21-2.45-7.55-5.85-9.99-10.2-2.38-4.42-3.57-9.52-3.57-15.3s1.16-10.84,3.47-15.19c2.38-4.42,5.68-7.82,9.89-10.2,4.28-2.38,9.18-3.57,14.68-3.57s10.03,1.16,14.17,3.47c4.15,2.31,7.38,5.58,9.69,9.79,2.31,4.15,3.47,8.94,3.47,14.38ZM421.74,130.45c-.07-4.28-1.6-7.72-4.59-10.3-2.99-2.58-6.7-3.88-11.12-3.88-4.01,0-7.44,1.29-10.3,3.88-2.86,2.52-4.55,5.95-5.1,10.3h31.1Z"/>
  <path d="M465.71,164.51c-4.42,0-8.4-.78-11.93-2.35-3.47-1.63-6.22-3.81-8.26-6.53-2.04-2.79-3.13-5.88-3.26-9.28h12.03c.2,2.38,1.33,4.39,3.36,6.02,2.11,1.56,4.73,2.35,7.85,2.35s5.78-.61,7.55-1.84c1.84-1.29,2.75-2.92,2.75-4.9,0-2.11-1.02-3.67-3.06-4.69-1.97-1.02-5.13-2.14-9.48-3.37-4.21-1.16-7.65-2.28-10.3-3.37-2.65-1.09-4.96-2.75-6.93-5-1.9-2.24-2.86-5.2-2.86-8.87,0-2.99.88-5.71,2.65-8.16,1.77-2.51,4.28-4.49,7.55-5.91,3.33-1.43,7.14-2.14,11.42-2.14,6.39,0,11.52,1.63,15.4,4.89,3.94,3.19,6.05,7.58,6.32,13.15h-11.62c-.2-2.51-1.22-4.52-3.06-6.02-1.84-1.5-4.32-2.24-7.44-2.24s-5.4.58-7.04,1.73c-1.63,1.15-2.45,2.69-2.45,4.59,0,1.49.54,2.75,1.63,3.77,1.09,1.02,2.41,1.84,3.98,2.45,1.56.54,3.88,1.26,6.93,2.14,4.08,1.09,7.41,2.21,9.99,3.37,2.65,1.09,4.93,2.72,6.83,4.89,1.9,2.18,2.89,5.07,2.96,8.67,0,3.2-.88,6.05-2.65,8.57-1.77,2.52-4.28,4.49-7.55,5.91-3.2,1.43-6.97,2.14-11.32,2.14Z"/>
  <path d="M326.34,30.9c1.56-3.47,3.94-6.15,7.14-8.06,3.26-1.9,7.24-2.86,11.93-2.86v7.44h-1.94c-5.17,0-9.31,1.39-12.44,4.18-3.13,2.79-4.69,7.44-4.69,13.97v31.1h-7.14V21.01h7.14v9.89Z"/>
  <path d="M359.72,10.5c-1.43,0-2.65-.51-3.67-1.53-1.02-1.02-1.53-2.28-1.53-3.77s.51-2.72,1.53-3.67c1.02-1.02,2.24-1.53,3.67-1.53s2.65.51,3.67,1.53c1.02.95,1.53,2.18,1.53,3.67s-.51,2.75-1.53,3.77c-1.02,1.02-2.24,1.53-3.67,1.53ZM363.29,21.01v55.68h-7.14V21.01h7.14Z"/>
  <path d="M386.59,1.22v75.46h-7.14V1.22h7.14Z"/>
  <path d="M409.89,1.22v75.46h-7.14V1.22h7.14Z"/>
  <path d="M429.63,10.5c-1.43,0-2.65-.51-3.67-1.53s-1.53-2.28-1.53-3.77.51-2.72,1.53-3.67c1.02-1.02,2.24-1.53,3.67-1.53s2.65.51,3.67,1.53c1.02.95,1.53,2.18,1.53,3.67s-.51,2.75-1.53,3.77c-1.02,1.02-2.24,1.53-3.67,1.53ZM433.2,21.01v55.68h-7.14V21.01h7.14Z"/>
  <path d="M446.1,48.75c0-5.71,1.12-10.71,3.37-14.99,2.31-4.35,5.47-7.68,9.48-9.99,4.08-2.38,8.67-3.57,13.77-3.57s9.86,1.22,13.67,3.67c3.88,2.45,6.66,5.57,8.36,9.38v-12.24h7.14v55.68h-7.14v-12.34c-1.77,3.81-4.59,6.97-8.46,9.48-3.81,2.45-8.36,3.67-13.66,3.67s-9.59-1.19-13.67-3.57c-4.01-2.38-7.17-5.74-9.48-10.1-2.24-4.35-3.37-9.38-3.37-15.09ZM494.74,48.85c0-4.49-.92-8.43-2.75-11.83-1.84-3.4-4.35-6.02-7.55-7.85-3.13-1.84-6.59-2.75-10.4-2.75s-7.48.88-10.61,2.65c-3.13,1.77-5.61,4.35-7.45,7.75-1.77,3.33-2.65,7.31-2.65,11.93s.88,8.57,2.65,12.03c1.84,3.4,4.32,6.02,7.45,7.85,3.13,1.77,6.66,2.65,10.61,2.65s7.27-.92,10.4-2.75c3.2-1.84,5.71-4.45,7.55-7.85,1.84-3.4,2.75-7.34,2.75-11.83Z"/>
  <path d="M591.99,27.02v34.57c0,3.4.65,5.74,1.94,7.04,1.29,1.29,3.57,1.94,6.83,1.94h6.53v6.12h-7.65c-5.03,0-8.77-1.16-11.22-3.47-2.45-2.38-3.67-6.25-3.67-11.63V27.02h-7.75v-6.02h7.75V7.04h7.24v13.97h15.3v6.02h-15.3Z"/>
  <path d="M559.96,41.9c0-6.89-3.83-12.85-9.75-14.6-2.95-.87-5.74-1.43-7.93-1.43s-4.98.56-7.93,1.43c-5.91,1.75-9.75,7.71-9.75,14.6v34.58h-7.14v-34.58c0-9.3,5.25-18.61,14.86-21.44,3.19-.94,6.75-1.72,9.95-1.72s6.76.78,9.95,1.72c9.61,2.84,14.87,12.14,14.87,21.44v34.58h-7.14v-34.58Z"/>
  <path d="M258.14,29.72c5.26-5.98,12.96-9.75,21.54-9.75h.74c15.5.4,27.94,13.09,27.94,28.68v.74c-.4,15.5-13.09,27.94-28.68,27.94h-.74c-15.14-.39-27.37-12.52-27.92-27.62h-.02V1.06h7.14v28.66ZM279.68,27.11c-11.9,0-21.54,9.65-21.54,21.54s9.64,21.54,21.54,21.54c11.9,0,21.54-9.65,21.54-21.54,0-11.9-9.65-21.54-21.54-21.54Z"/>
  <path d="M308.58,89.23v48.44h0v.1c-.39,15.25-12.68,27.54-27.93,27.93h-.74c-15.59,0-28.28-12.43-28.67-27.93v-.74c0-15.59,12.43-28.28,27.93-28.67h.74c6.36-.01,12.24,2.06,17,5.57v-24.7h11.68ZM279.9,120.04c-9.39,0-17,7.61-17,17,0,9.39,7.61,17,17,17,9.39,0,17-7.61,17-17,0-9.39-7.61-17-17-17Z"/>
  <path d="M94.71,70.98c.19.11.38.22.56.34,7.8,4.96,8.51,16.09,1.69,22.33-2.19,2-4.67,4.38-7.17,7.02-10.68,11.28-15.87,20.95-15.87,29.57,0,19.72,16.06,35.76,35.8,35.76s35.8-16.04,35.8-35.76c0-8.62-5.19-18.3-15.87-29.57-2.49-2.63-4.98-5.02-7.16-7.02-6.83-6.24-6.12-17.37,1.69-22.33.18-.12.37-.23.56-.34M124.72,70.98c.19-.11.38-.21.57-.31,8.2-4.27,18.21.68,20.21,9.7.64,2.89,1.47,6.24,2.5,9.71,4.44,14.88,10.23,24.21,17.71,28.52,5.62,3.25,11.77,4.78,17.84,4.78,12.38,0,24.44-6.41,31.07-17.87,4.78-8.27,6.05-17.91,3.57-27.14-2.47-9.23-8.4-16.94-16.68-21.71-7.48-4.31-18.47-4.66-33.58-1.06-4.41,1.05-8.48,2.28-11.68,3.34-2.42.8-5.07.77-7.41-.21-.06-.02-.11-.05-.17-.07-5.03-2.19-7.24-8.04-5.2-13.12,1.37-3.42,2.05-6.67,2.05-9.79,0-19.71-16.06-35.75-35.8-35.75s-35.8,16.04-35.8,35.76c0,3.13.68,6.4,2.07,9.83,1.97,4.89,0,10.59-4.76,12.86-.06.03-.12.05-.17.08-2.47,1.14-5.29,1.26-7.88.41-3.2-1.06-7.27-2.29-11.67-3.33-15.12-3.6-26.11-3.25-33.58,1.06-8.28,4.77-14.2,12.49-16.68,21.71S.03,97.24,4.81,105.51c4.78,8.27,12.5,14.19,21.74,16.66,3.08.83,6.22,1.23,9.32,1.23,6.2,0,12.33-1.63,17.84-4.8,7.48-4.31,13.27-13.64,17.71-28.52,1.04-3.47,1.87-6.82,2.5-9.71,2-9.02,12-13.98,20.21-9.7.19.1.38.21.57.31M109.72,17.88c9.87,0,17.9,8.02,17.9,17.88,0,5.21-8.5,15.64-17.9,24.08-9.41-8.45-17.9-18.87-17.9-24.08,0-9.86,8.03-17.88,17.9-17.88ZM44.77,103.11c-8.55,4.93-19.52,1.99-24.45-6.54-2.39-4.13-3.03-8.95-1.79-13.57,1.24-4.61,4.2-8.47,8.34-10.86,1.37-.79,3.55-1.14,6.26-1.14,6.21,0,15.2,1.86,23.57,4.59-2.62,12.36-7.41,24.92-11.93,27.52ZM127.62,130.24c0,9.86-8.03,17.88-17.9,17.88s-17.9-8.02-17.9-17.88c0-5.21,8.5-15.64,17.9-24.08,9.41,8.45,17.9,18.87,17.9,24.08ZM199.12,96.57c-4.94,8.54-15.91,11.47-24.45,6.54-4.52-2.61-9.31-15.17-11.93-27.52,12.02-3.91,25.31-6.05,29.83-3.44,4.14,2.39,7.1,6.24,8.34,10.86,1.24,4.61.6,9.43-1.79,13.57Z"/>
</svg>