<?xml version="1.0" encoding="UTF-8"?>
<svg id="Layer_1" xmlns="http://www.w3.org/2000/svg" version="1.1" viewBox="0 0 546 240">
  <!-- Generator: Adobe Illustrator 30.2.1, SVG Export Plug-In . SVG Version: 2.1.1 Build 1)  -->
  <defs>
    <style>
      .st0 {
        fill: #00763e;
        fill-rule: evenodd;
      }

      .st1 {
        fill: #a9e6d1;
      }
    </style>
  </defs>
  <rect class="st1" x="250.21" y="116.55" width="11.42" height="10.01" transform="translate(-22.38 174.63) rotate(-36.2)"/>
  <rect class="st1" x="286" y="115.02" width="10.01" height="11.42" transform="translate(21.7 284.24) rotate(-53.8)"/>
  <rect class="st1" x="267.94" y="103.53" width="9.79" height="11.42"/>
  <rect class="st1" x="267.94" y="124.74" width="9.79" height="11.42"/>
  <path class="st0" d="M272.94,99.75c4.77,0,8.65,3.92,8.65,8.74,0,.85-.2,1.74-.61,2.68-.27,1.15.27,2.36,1.37,2.85.01,0,.03.01.04.02.57.24,1.21.25,1.79.05.77-.26,1.76-.56,2.82-.82,3.65-.88,6.3-.79,8.11.26,2,1.17,3.43,3.05,4.03,5.31h0c.6,2.25.29,4.61-.86,6.63-1.6,2.8-4.51,4.37-7.5,4.37-1.47,0-2.95-.38-4.31-1.17-1.81-1.05-3.2-3.33-4.28-6.97-.25-.85-.45-1.67-.6-2.37-.48-2.2-2.9-3.41-4.88-2.37-.05.02-.09.05-.14.08h0s-.09.05-.13.08c-.07.05-.14.1-.21.15-.16.15-.32.3-.47.43-1.21,1.36-1.14,3.56.28,4.87h0c.53.49,1.13,1.07,1.73,1.72,2.58,2.76,3.83,5.12,3.83,7.23,0,4.82-3.88,8.74-8.65,8.74s-8.65-3.92-8.65-8.74c0-2.11,1.25-4.47,3.83-7.23.6-.64,1.2-1.23,1.73-1.72,1.42-1.31,1.49-3.51.28-4.87-.11-.1-.22-.2-.34-.31-.07-.05-.14-.1-.22-.15-.04-.03-.09-.06-.14-.08-.05-.03-.09-.05-.14-.08-1.98-1.04-4.4.17-4.88,2.37-.15.71-.35,1.52-.6,2.37-1.07,3.63-2.47,5.91-4.28,6.97h0c-1.33.78-2.81,1.18-4.31,1.18-.75,0-1.51-.1-2.25-.3-2.23-.6-4.1-2.05-5.25-4.07-1.15-2.02-1.46-4.38-.86-6.63.6-2.25,2.03-4.14,4.03-5.31,1.81-1.05,4.46-1.14,8.11-.26,1.06.26,2.04.56,2.82.82.62.21,1.31.18,1.9-.1.01,0,.03-.01.04-.02.96-.46,1.45-1.5,1.31-2.53-.53-1.08-.79-2.1-.79-3.07,0-4.82,3.88-8.74,8.65-8.74ZM272.94,125.62c-2.27,2.06-4.32,4.61-4.32,5.88,0,2.41,1.94,4.37,4.32,4.37s4.32-1.96,4.32-4.37c0-1.27-2.05-3.82-4.32-5.88ZM254.58,117.15c-.65,0-1.18.09-1.51.28-1,.58-1.72,1.53-2.01,2.65-.3,1.13-.14,2.31.43,3.32,1.19,2.09,3.84,2.8,5.9,1.6,1.09-.64,2.25-3.71,2.88-6.73-2.02-.67-4.19-1.12-5.69-1.12ZM292.93,117.32c-1.09-.64-4.3-.12-7.2.84.63,3.02,1.79,6.09,2.88,6.73,2.06,1.2,4.71.49,5.9-1.6.58-1.01.73-2.19.43-3.31-.3-1.13-1.01-2.07-2.01-2.65ZM272.94,104.12c-2.38,0-4.32,1.96-4.32,4.37,0,1.27,2.05,3.82,4.32,5.88,2.27-2.06,4.32-4.61,4.32-5.88,0-2.41-1.94-4.37-4.32-4.37Z"/>
</svg>